{"title":"House Of Cards S04 Season 4 1080p 5.1Ch WebRip ReEnc-DeeJayAhmed","uid":13824108,"size":8565830696,"categoryP":"video","categoryS":"hd___tv_shows","magnet":"?xt=urn:btih:69b2e960c59704cbdd20af3699f6e9a1e7d63217&amp;dn=House+Of+Cards+S04+Season+4+1080p+5.1Ch+WebRip+ReEnc-DeeJayAhmed&amp;tr=udp%3A%2F%2Ftracker.leechers-paradise.org%3A6969&amp;tr=udp%3A%2F%2Fzer0day.ch%3A1337&amp;tr=udp%3A%2F%2Fopen.demonii.com%3A1337&amp;tr=udp%3A%2F%2Ftracker.coppersurfer.tk%3A6969&amp;tr=udp%3A%2F%2Fexodus.desync.com%3A6969","seeders":3,"leechers":4,"uploader":"DeeJayPirate","files":15,"time":1457680728,"description":"DeeJayAhmed  \nhttps://www.DeeJayAhmed.com\r\r\nKeep Seeding!!=)) \r\nDo Comment On The A/V Quality Considering The Size Of The File..!\r\nHelp Me By Donating Bitcoins : 14i1UCWye2SCjoAHR5u6LDswWgAy55dxAv\r\n\r\nVideo \r\nID : 1 \r\nFormat : AVC \r\nFormat/Info : Advanced Video Codec \r\nFormat profile :    \r\nFormat settings, CABAC : Yes \r\nFormat settings, ReFrames : 4 frames \r\nCodec ID : V_MPEG4/ISO/AVC \r\nDuration : 48mn 40s \r\nBit rate : 1 576 Kbps \r\nWidth : 1 920 pixels \r\nHeight : 960 pixels \r\nDisplay aspect ratio : 2.000 \r\nFrame rate mode : Constant \r\nFrame rate : 23.976 (24000/1001) fps \r\nColor space : YUV \r\nChroma subsampling : 4:2:0 \r\nBit depth : 8 bits \r\nScan type : Progressive \r\nBits/(Pixel*Frame) : 0.036 \r\nStream size : 549 MiB (88%) \r\nDefault : Yes \r\nForced : No \r\n\r\nAudio \r\nID : 2 \r\nFormat : AAC \r\nFormat/Info : Advanced Audio Codec \r\nFormat profile : HE-AAC / LC \r\nCodec ID : A_AAC \r\nDuration : 48mn 40s \r\nBit rate : 218 Kbps \r\nChannel(s) : 6 channels \r\nChannel positions : Front: L C R, Side: L R, LFE \r\nSampling rate : 48.0 KHz / 24.0 KHz \r\nFrame rate : 23.438 fps (1024 spf) \r\nCompression mode : Lossy \r\nDelay relative to video : 31ms \r\nStream size : 75.9 MiB (12%) \r\nLanguage : English \r\nDefault : Yes \r\nForced : No \r\n\r\nText #1 \r\nID : 3 \r\nFormat : UTF-8 \r\nCodec ID : S_TEXT/UTF8 \r\nCodec ID/Info : UTF-8 Plain Text \r\nDuration : 46mn 10s \r\nBit rate : 72 bps \r\nCount of elements : 607 \r\nStream size : 24.6 KiB (0%) \r\nTitle : English \r\nLanguage : English \r\nDefault : No \r\nForced : No \r\n\r\nText #2 \r\nID : 4 \r\nFormat : UTF-8 \r\nCodec ID : S_TEXT/UTF8 \r\nCodec ID/Info : UTF-8 Plain Text \r\nDuration : 46mn 11s \r\nBit rate : 77 bps \r\nCount of elements : 662 \r\nStream size : 26.4 KiB (0%) \r\nTitle : English (SDH) \r\nLanguage : English \r\nDefault : Yes \r\nForced : No \r\n\r\nText #3 \r\nID : 5 \r\nFormat : UTF-8 \r\nCodec ID : S_TEXT/UTF8 \r\nCodec ID/Info : UTF-8 Plain Text \r\nDuration : 46mn 10s \r\nBit rate : 58 bps \r\nCount of elements : 522 \r\nStream size : 19.7 KiB (0%) \r\nTitle : Dutch \r\nLanguage : Dutch \r\nDefault : No \r\nForced : No \r\n\r\nText #4 \r\nID : 6 \r\nFormat : UTF-8 \r\nCodec ID : S_TEXT/UTF8 \r\nCodec ID/Info : UTF-8 Plain Text \r\nDuration : 48mn 33s \r\nBit rate : 53 bps \r\nCount of elements : 546 \r\nStream size : 18.9 KiB (0%) \r\nTitle : French \r\nLanguage : French \r\nDefault : No \r\nForced : No \r\n\r\nText #5 \r\nID : 7 \r\nFormat : UTF-8 \r\nCodec ID : S_TEXT/UTF8 \r\nCodec ID/Info : UTF-8 Plain Text \r\nDuration : 46mn 10s \r\nBit rate : 73 bps \r\nCount of elements : 553 \r\nStream size : 24.8 KiB (0%) \r\nTitle : Italian \r\nLanguage : Italian \r\nDefault : No \r\nForced : No \r\n\r\nText #6 \r\nID : 8 \r\nFormat : UTF-8 \r\nCodec ID : S_TEXT/UTF8 \r\nCodec ID/Info : UTF-8 Plain Text \r\nDuration : 46mn 10s \r\nBit rate : 70 bps \r\nCount of elements : 552 \r\nStream size : 23.8 KiB (0%) \r\nTitle : Portuguese \r\nLanguage : Portuguese \r\nDefault : No \r\nForced : No","torrent":{"xt":"urn:btih:69b2e960c59704cbdd20af3699f6e9a1e7d63217","amp;dn":"House+Of+Cards+S04+Season+4+1080p+5.1Ch+WebRip+ReEnc-DeeJayAhmed","amp;tr":["udp%3A%2F%2Ftracker.leechers-paradise.org%3A6969","udp%3A%2F%2Fzer0day.ch%3A1337","udp%3A%2F%2Fopen.demonii.com%3A1337","udp%3A%2F%2Ftracker.coppersurfer.tk%3A6969","udp%3A%2F%2Fexodus.desync.com%3A6969"],"infoHash":"69b2e960c59704cbdd20af3699f6e9a1e7d63217","infoHashBuffer":{"type":"Buffer","data":[105,178,233,96,197,151,4,203,221,32,175,54,153,246,233,161,231,214,50,23]},"announce":[],"urlList":[]}}